<?xml version="1.0" encoding="UTF-8" standalone="no"?>
<!-- Created with Inkscape (http://www.inkscape.org/) -->

<svg
   xmlns:dc="http://purl.org/dc/elements/1.1/"
   xmlns:cc="http://creativecommons.org/ns#"
   xmlns:rdf="http://www.w3.org/1999/02/22-rdf-syntax-ns#"
   xmlns:svg="http://www.w3.org/2000/svg"
   xmlns="http://www.w3.org/2000/svg"
   xmlns:sodipodi="http://sodipodi.sourceforge.net/DTD/sodipodi-0.dtd"
   xmlns:inkscape="http://www.inkscape.org/namespaces/inkscape"
   width="176.14656mm"
   height="48.813972mm"
   viewBox="0 0 176.14656 48.813972"
   version="1.1"
   id="svg8"
   inkscape:version="0.92.3 (2405546, 2018-03-11)"
   sodipodi:docname="djangoxp2.svg">
  <defs
     id="defs2" />
  <sodipodi:namedview
     id="base"
     pagecolor="#ffffff"
     bordercolor="#666666"
     borderopacity="1.0"
     inkscape:pageopacity="0.0"
     inkscape:pageshadow="2"
     inkscape:zoom="0.49497475"
     inkscape:cx="-91.341892"
     inkscape:cy="-146.57003"
     inkscape:document-units="mm"
     inkscape:current-layer="layer1"
     showgrid="false"
     showguides="true"
     inkscape:guide-bbox="true"
     inkscape:window-width="1565"
     inkscape:window-height="843"
     inkscape:window-x="1715"
     inkscape:window-y="27"
     inkscape:window-maximized="0" />
  <metadata
     id="metadata5">
    <rdf:RDF>
      <cc:Work
         rdf:about="">
        <dc:format>image/svg+xml</dc:format>
        <dc:type
           rdf:resource="http://purl.org/dc/dcmitype/StillImage" />
        <dc:title />
      </cc:Work>
    </rdf:RDF>
  </metadata>
  <g
     inkscape:label="Layer 1"
     inkscape:groupmode="layer"
     id="layer1"
     transform="translate(-12.93649,-29.379098)">
    <g
       id="g174"
       transform="matrix(0.81303377,0,0,0.81303377,220.15243,-44.051308)">
      <rect
         ry="9.1375685"
         y="90.316551"
         x="-242.13228"
         height="59.808319"
         width="203.91815"
         id="rect130-9"
         style="opacity:1;fill:#9ecc48;fill-opacity:1;stroke:none;stroke-width:0.22321357;stroke-opacity:1" />
      <rect
         ry="9.1375675"
         y="90.547523"
         x="-254.86757"
         height="59.808319"
         width="198.3055"
         id="rect130"
         style="opacity:1;fill:#003828;fill-opacity:1;stroke:none;stroke-width:0.22012025;stroke-opacity:1" />
      <g
         style="fill:#9dcc47;fill-opacity:1"
         transform="matrix(4.6939445,0,0,4.6939445,342.69594,-442.2561)"
         id="g134">
        <path
           id="path111-5"
           style="font-style:normal;font-variant:normal;font-weight:500;font-stretch:normal;font-size:11.4337101px;line-height:1.25;font-family:Flux;-inkscape-font-specification:'Flux, Medium';font-variant-ligatures:normal;font-variant-caps:normal;font-variant-numeric:normal;font-feature-settings:normal;text-align:start;letter-spacing:0px;word-spacing:0px;writing-mode:lr-tb;text-anchor:start;fill:#9dcc47;fill-opacity:1;stroke:none;stroke-width:0.2135414"
           d="m -94.310069,123.45376 h 1.05793 l -2.62659,-3.66598 2.27395,-3.03169 -0.60801,-0.20426 -2.03074,2.73067 -1.94562,-2.74143 -0.89985,0.25802 2.31042,3.21445 -2.57794,3.44022 h 0.74176 l 2.20099,-2.94569 z"
           inkscape:connector-curvature="0" />
        <path
           id="path113-0"
           style="font-style:normal;font-variant:normal;font-weight:500;font-stretch:normal;font-size:11.4337101px;line-height:1.25;font-family:Flux;-inkscape-font-specification:'Flux, Medium';font-variant-ligatures:normal;font-variant-caps:normal;font-variant-numeric:normal;font-feature-settings:normal;text-align:start;letter-spacing:0px;word-spacing:0px;writing-mode:lr-tb;text-anchor:start;fill:#9dcc47;fill-opacity:1;stroke:none;stroke-width:0.2135414"
           d="m -90.886039,120.28231 h 1.66594 c 1.16737,0 2.0429,-0.7633 2.0429,-1.79537 -0.0122,-1.02131 -0.94849,-1.81686 -2.17666,-1.82761 -0.97281,0.0107 -2.41987,0.0107 -2.41987,0.0107 v 6.78367 h 0.88769 z m 2.80899,-1.81686 c 0,0.75255 -0.57153,1.27933 -1.41058,1.27933 h -1.39841 v -2.51566 c 0,0 0.82689,0 1.42274,0 0.76608,0 1.38625,0.60204 1.38625,1.23633 z"
           inkscape:connector-curvature="0" />
      </g>
      <g
         transform="matrix(0.03008121,-1.8621911,2.0870859,0.0268398,-249.16567,-71.991613)"
         id="g140">
        <path
           id="path131-9"
           style="font-style:normal;font-variant:normal;font-weight:500;font-stretch:normal;font-size:11.4337101px;line-height:1.25;font-family:Flux;-inkscape-font-specification:'Flux, Medium';font-variant-ligatures:normal;font-variant-caps:normal;font-variant-numeric:normal;font-feature-settings:normal;text-align:start;letter-spacing:0px;word-spacing:0px;writing-mode:lr-tb;text-anchor:start;fill:#ffffff;fill-opacity:1;stroke:none;stroke-width:0.2135414"
           d="m -108.78219,96.664337 c -0.15807,-0.66654 -0.82689,-0.77405 -1.21601,-0.7848 -0.34048,0.0107 -0.93633,0.19351 -1.24033,0.32252 l -0.26753,-0.41928 c 0.4256,-0.24726 1.10657,-0.43002 1.62946,-0.41927 0.92417,0.0107 1.88483,0.31177 2.0429,1.20407 0.10945,0.63429 -0.0608,1.10732 -1.08225,1.80612 -0.59585,0.40852 -1.41058,0.81705 -1.87266,1.09657 h 3.14947 v 0.731043 h -3.93988 c -0.0851,-0.18276 -0.26752,-0.451533 -0.38912,-0.709553 0.94849,-0.55903 1.20385,-0.68803 2.01858,-1.22557 0.85121,-0.55903 1.32545,-0.91381 1.16737,-1.5911 z"
           inkscape:connector-curvature="0" />
        <path
           id="path133-5"
           style="font-style:normal;font-variant:normal;font-weight:500;font-stretch:normal;font-size:11.4337101px;line-height:1.25;font-family:Flux;-inkscape-font-specification:'Flux, Medium';font-variant-ligatures:normal;font-variant-caps:normal;font-variant-numeric:normal;font-feature-settings:normal;text-align:start;letter-spacing:0px;word-spacing:0px;writing-mode:lr-tb;text-anchor:start;fill:#ffffff;fill-opacity:1;stroke:none;stroke-width:0.2135414"
           d="m -106.87001,97.760907 c 0,1.30083 0.74177,2.526413 2.31043,2.537163 1.55649,-0.0107 2.31042,-1.236333 2.31042,-2.537163 0,-1.26858 -0.85121,-2.3759 -2.29826,-2.38666 -1.45921,0.0107 -2.33475,1.11808 -2.33475,2.38666 z m 0.89985,0 c 0,-0.84931 0.23105,-1.78462 1.38626,-1.84912 1.08225,0.0538 1.41057,0.99981 1.41057,1.84912 0,0.90306 -0.21887,1.97812 -1.39841,2.01037 -1.08226,0 -1.38626,-1.10731 -1.38626,-2.01037 z"
           inkscape:connector-curvature="0" />
        <path
           id="path135-0"
           style="font-style:normal;font-variant:normal;font-weight:500;font-stretch:normal;font-size:11.4337101px;line-height:1.25;font-family:Flux;-inkscape-font-specification:'Flux, Medium';font-variant-ligatures:normal;font-variant-caps:normal;font-variant-numeric:normal;font-feature-settings:normal;text-align:start;letter-spacing:0px;word-spacing:0px;writing-mode:lr-tb;text-anchor:start;fill:#ffffff;fill-opacity:1;stroke:none;stroke-width:0.2135414"
           d="m -98.379569,96.664337 c -0.15808,-0.66654 -0.82689,-0.77405 -1.21602,-0.7848 -0.34048,0.0107 -0.936321,0.19351 -1.240331,0.32252 l -0.26753,-0.41928 c 0.42561,-0.24726 1.106581,-0.43002 1.629461,-0.41927 0.92417,0.0107 1.88483,0.31177 2.04291,1.20407 0.10944,0.63429 -0.0608,1.10732 -1.08225,1.80612 -0.59585,0.40852 -1.41058,0.81705 -1.872671,1.09657 h 3.149481 v 0.731043 h -3.939891 c -0.0851,-0.18276 -0.26752,-0.451533 -0.38912,-0.709553 0.94849,-0.55903 1.20386,-0.68803 2.018591,-1.22557 0.85121,-0.55903 1.32545,-0.91381 1.16737,-1.5911 z"
           inkscape:connector-curvature="0" />
        <path
           id="path137-2"
           style="font-style:normal;font-variant:normal;font-weight:500;font-stretch:normal;font-size:11.4337101px;line-height:1.25;font-family:Flux;-inkscape-font-specification:'Flux, Medium';font-variant-ligatures:normal;font-variant-caps:normal;font-variant-numeric:normal;font-feature-settings:normal;text-align:start;letter-spacing:0px;word-spacing:0px;writing-mode:lr-tb;text-anchor:start;fill:#ffffff;fill-opacity:1;stroke:none;stroke-width:0.2135414"
           d="m -96.467389,97.760907 c 0,1.30083 0.74176,2.526413 2.31042,2.537163 1.55651,-0.0107 2.31043,-1.236333 2.31043,-2.537163 0,-1.26858 -0.85121,-2.3759 -2.29827,-2.38666 -1.45921,0.0107 -2.33474,1.11808 -2.33474,2.38666 z m 0.89985,0 c 0,-0.84931 0.23104,-1.78462 1.38625,-1.84912 1.08225,0.0538 1.41058,0.99981 1.41058,1.84912 0,0.90306 -0.21888,1.97812 -1.39841,2.01037 -1.08225,0 -1.38627,-1.10731 -1.38627,-2.01037 z"
           inkscape:connector-curvature="0" />
      </g>
      <g
         transform="matrix(1.0926909,0,0,1.0926909,-260.52474,-13.424225)"
         aria-label="django"
         style="font-style:normal;font-variant:normal;font-weight:500;font-stretch:normal;font-size:43.32151794px;line-height:1.25;font-family:Flux;-inkscape-font-specification:'Flux, Medium';font-variant-ligatures:normal;font-variant-caps:normal;font-variant-numeric:normal;font-feature-settings:normal;text-align:start;letter-spacing:0px;word-spacing:0px;writing-mode:lr-tb;text-anchor:start;fill:#ffffff;fill-opacity:1;stroke:none;stroke-width:1.3569839"
         id="text14-6-8">
        <path
           inkscape:connector-curvature="0"
           d="m 33.188856,129.42021 -0.04332,-27.24924 -3.032507,1.03972 v 11.13363 c -1.819503,-0.86643 -3.682329,-1.38629 -5.675119,-1.38629 -5.241903,-0.0433 -7.841194,5.32855 -7.841194,9.92063 0,4.50544 2.29604,9.92063 7.494622,9.87731 3.509043,0 6.498228,-1.29965 9.097518,-3.33576 z m -3.075828,-0.34657 c -1.169681,0.77978 -3.119149,1.77618 -5.068617,1.77618 -3.855615,0 -5.025296,-4.76537 -5.025296,-7.75455 0,-3.16247 1.213002,-8.05781 5.198582,-8.05781 1.906147,0.0433 3.292435,0.73647 4.895331,1.73287 z"
           style="font-style:normal;font-variant:normal;font-weight:500;font-stretch:normal;font-size:43.32151794px;font-family:Flux;-inkscape-font-specification:'Flux, Medium';font-variant-ligatures:normal;font-variant-caps:normal;font-variant-numeric:normal;font-feature-settings:normal;text-align:start;writing-mode:lr-tb;text-anchor:start;fill:#ffffff;fill-opacity:1;stroke-width:1.3569839"
           id="path140-1" />
        <path
           inkscape:connector-curvature="0"
           d="m 45.413647,112.91471 v 21.1409 c 0,6.49823 -3.249114,9.35745 -8.317732,9.35745 -1.386288,0 -2.209397,-0.25993 -3.4224,-0.77979 l 0.693145,-2.07943 c 0.389893,0.17328 1.083038,0.43321 1.559574,0.51986 5.718441,0.77978 6.28162,-3.55237 6.28162,-6.88812 l 0.04332,-20.14451 z m -3.639008,-6.06501 c 0,1.12636 0.909752,2.03611 2.036112,2.03611 1.169681,0 2.079432,-0.90975 2.079432,-2.03611 0,-1.16968 -0.909751,-2.07944 -2.036111,-2.07944 -1.169681,0 -2.079433,0.90976 -2.079433,2.03612 z"
           style="font-style:normal;font-variant:normal;font-weight:500;font-stretch:normal;font-size:43.32151794px;font-family:Flux;-inkscape-font-specification:'Flux, Medium';font-variant-ligatures:normal;font-variant-caps:normal;font-variant-numeric:normal;font-feature-settings:normal;text-align:start;writing-mode:lr-tb;text-anchor:start;fill:#ffffff;fill-opacity:1;stroke-width:1.3569839"
           id="path142-9" />
        <path
           inkscape:connector-curvature="0"
           d="m 64.911038,129.50685 v -10.96034 c 0,-3.50905 -3.119149,-5.58848 -6.28162,-5.58848 -2.599291,0 -4.332152,0.43322 -6.584871,1.64622 l 0.779788,1.8195 c 1.689539,-0.86643 3.075827,-1.34296 4.981974,-1.34296 2.122754,0 4.115544,1.47293 4.115544,3.639 v 1.86283 c -1.73286,0 -3.075827,0 -5.15526,0 -3.639008,-0.0433 -6.498228,2.2094 -6.54155,5.89173 -0.08664,3.46572 2.729256,6.19497 6.151656,6.28162 3.768972,0.0433 6.714835,-1.42961 8.534339,-3.24912 z m -3.075828,-0.43321 c -0.563179,0.6065 -2.252719,1.60289 -4.072222,1.55957 -2.512648,0 -4.332152,-2.07943 -4.332152,-4.24551 0,-2.38268 1.819504,-3.76897 4.245509,-3.76897 1.559574,-0.0433 3.16247,-0.0433 4.158865,-0.0433 z"
           style="font-style:normal;font-variant:normal;font-weight:500;font-stretch:normal;font-size:43.32151794px;font-family:Flux;-inkscape-font-specification:'Flux, Medium';font-variant-ligatures:normal;font-variant-caps:normal;font-variant-numeric:normal;font-feature-settings:normal;text-align:start;writing-mode:lr-tb;text-anchor:start;fill:#ffffff;fill-opacity:1;stroke-width:1.3569839"
           id="path144-8" />
        <path
           inkscape:connector-curvature="0"
           d="m 84.821337,132.40939 v -14.51271 c 0,-2.55596 -2.036111,-4.20218 -4.332152,-4.72204 -2.252719,-0.51986 -4.375473,-0.0866 -5.935048,0.34657 -1.99279,0.51986 -3.4224,1.42961 -5.025296,2.59929 v 16.28889 h 3.162471 V 116.5104 c 0.996395,-0.69315 2.599291,-1.42961 4.28883,-1.47294 2.772577,-0.0433 4.678724,1.55958 4.678724,4.46212 v 12.90981 z"
           style="font-style:normal;font-variant:normal;font-weight:500;font-stretch:normal;font-size:43.32151794px;font-family:Flux;-inkscape-font-specification:'Flux, Medium';font-variant-ligatures:normal;font-variant-caps:normal;font-variant-numeric:normal;font-feature-settings:normal;text-align:start;writing-mode:lr-tb;text-anchor:start;fill:#ffffff;fill-opacity:1;stroke-width:1.3569839"
           id="path146-1" />
        <path
           inkscape:connector-curvature="0"
           d="m 105.48502,116.46707 c -2.72926,-2.38268 -6.28162,-3.46572 -9.227483,-3.46572 -5.025296,0 -7.451301,5.67512 -7.451301,9.96395 0,4.59208 2.29604,9.79067 7.494622,9.79067 2.426005,0.0433 4.202192,-0.69315 6.151652,-1.99279 0.0433,0.43321 0,0.86643 0,1.34296 0,1.38629 -0.0433,3.76897 -0.69314,4.98198 -1.29965,2.46932 -4.765367,2.8159 -7.191372,3.16247 l 0.476536,1.99279 c 3.205793,-0.0866 7.711226,-1.29965 9.314126,-4.33215 0.95307,-1.73286 1.08304,-4.59208 1.08304,-6.88813 z m -3.16247,12.21667 c -1.64622,0.9964 -3.162472,1.94947 -5.11194,1.94947 -3.768972,0 -4.938653,-4.54876 -4.938653,-7.58126 0,-3.16248 1.169681,-7.88452 5.155261,-7.88452 1.906147,0 3.292432,0.69314 4.895332,1.68954 z"
           style="font-style:normal;font-variant:normal;font-weight:500;font-stretch:normal;font-size:43.32151794px;font-family:Flux;-inkscape-font-specification:'Flux, Medium';font-variant-ligatures:normal;font-variant-caps:normal;font-variant-numeric:normal;font-feature-settings:normal;text-align:start;writing-mode:lr-tb;text-anchor:start;fill:#ffffff;fill-opacity:1;stroke-width:1.3569839"
           id="path148-6" />
        <path
           inkscape:connector-curvature="0"
           d="m 109.32575,122.57541 c 0,5.2419 2.77257,10.18056 8.62098,10.22388 5.89172,-0.0433 8.75094,-4.98198 8.75094,-10.22388 -0.0433,-5.11194 -3.24911,-9.57406 -8.70762,-9.61738 -5.41519,0.0433 -8.6643,4.50544 -8.6643,9.61738 z m 3.4224,0 c 0,-3.4224 0.86643,-7.19137 5.19858,-7.4513 4.07222,0.21661 5.28522,4.0289 5.28522,7.4513 0,3.63901 -0.77978,8.14444 -5.19858,8.27441 -4.07222,-0.0433 -5.2419,-4.6354 -5.2419,-8.27441 z"
           style="font-style:normal;font-variant:normal;font-weight:500;font-stretch:normal;font-size:43.32151794px;font-family:Flux;-inkscape-font-specification:'Flux, Medium';font-variant-ligatures:normal;font-variant-caps:normal;font-variant-numeric:normal;font-feature-settings:normal;text-align:start;writing-mode:lr-tb;text-anchor:start;fill:#ffffff;fill-opacity:1;stroke-width:1.3569839"
           id="path150-4" />
      </g>
    </g>
  </g>
</svg>
